HIERARCHY
ROOT Hips
{
	OFFSET 55.310501 45.591206 43.872097
	CHANNELS 6 Xposition Yposition Zposition Zrotation Xrotation Yrotation
	JOINT Chest
	{
		OFFSET -0.153500 1.163101 7.852402
		CHANNELS 6 Xposition Yposition Zposition Zrotation Xrotation Yrotation
		JOINT Chest2
		{
			OFFSET 0.000000 0.000000 3.343300
			CHANNELS 6 Xposition Yposition Zposition Zrotation Xrotation Yrotation
			JOINT Neck
			{
				OFFSET 0.000000 0.000000 7.785500
				CHANNELS 6 Xposition Yposition Zposition Zrotation Xrotation Yrotation
				JOINT Head
				{
					OFFSET 0.000000 0.000000 2.173901
					CHANNELS 6 Xposition Yposition Zposition Zrotation Xrotation Yrotation
					End Site
					{
						OFFSET 0.000000 0.000000 10.528198
					}
				}
			}
			JOINT LeftCollar
			{
				OFFSET 2.676300 -1.652401 4.938301
				CHANNELS 6 Xposition Yposition Zposition Zrotation Xrotation Yrotation
				JOINT LeftShoulder
				{
					OFFSET 4.299000 0.000000 0.000000
					CHANNELS 6 Xposition Yposition Zposition Zrotation Xrotation Yrotation
					JOINT LeftElbow
					{
						OFFSET 0.000000 0.000000 -10.245102
						CHANNELS 6 Xposition Yposition Zposition Zrotation Xrotation Yrotation
						JOINT LeftWrist
						{
							OFFSET 0.000000 0.000000 -12.703300
							CHANNELS 6 Xposition Yposition Zposition Zrotation Xrotation Yrotation
							End Site
							{
								OFFSET 0.000000 0.000000 -2.173901
							}
						}
					}
				}
			}
			JOINT RightCollar
			{
				OFFSET -2.534599 -1.686401 5.195000
				CHANNELS 6 Xposition Yposition Zposition Zrotation Xrotation Yrotation
				JOINT RightShoulder
				{
					OFFSET -4.144100 0.000000 0.000000
					CHANNELS 6 Xposition Yposition Zposition Zrotation Xrotation Yrotation
					JOINT RightElbow
					{
						OFFSET 0.000000 0.000000 -10.116501
						CHANNELS 6 Xposition Yposition Zposition Zrotation Xrotation Yrotation
						JOINT RightWrist
						{
							OFFSET 0.000000 0.000000 -12.937801
							CHANNELS 6 Xposition Yposition Zposition Zrotation Xrotation Yrotation
							End Site
							{
								OFFSET 0.000000 0.000000 -2.173901
							}
						}
					}
				}
			}
		}
	}
	JOINT LeftHip
	{
		OFFSET 2.175598 0.064499 -2.662899
		CHANNELS 6 Xposition Yposition Zposition Zrotation Xrotation Yrotation
		JOINT LeftKnee
		{
			OFFSET 0.000000 -0.000004 -18.585800
			CHANNELS 6 Xposition Yposition Zposition Zrotation Xrotation Yrotation
			JOINT LeftAnkle
			{
				OFFSET 0.000000 0.000000 -18.979500
				CHANNELS 6 Xposition Yposition Zposition Zrotation Xrotation Yrotation
				End Site
				{
					OFFSET 0.000000 -9.264000 0.000000
				}
			}
		}
	}
	JOINT RightHip
	{
		OFFSET -2.092400 -0.058102 -2.581200
		CHANNELS 6 Xposition Yposition Zposition Zrotation Xrotation Yrotation
		JOINT RightKnee
		{
			OFFSET 0.000000 -0.000004 -18.665001
			CHANNELS 6 Xposition Yposition Zposition Zrotation Xrotation Yrotation
			JOINT RightAnkle
			{
				OFFSET 0.000000 0.000000 -18.566601
				CHANNELS 6 Xposition Yposition Zposition Zrotation Xrotation Yrotation
				End Site
				{
					OFFSET 0.000000 -8.497601 0.000000
				}
			}
		}
	}
}
MOTION
Frames: 4
Frame Time: 0.041667
82.388397 20.428707 20.290499 1497.146211 48.498192 -27.925797 -0.153502 1.163102 7.852405 28.702733 1.978285 2.777719 0.000003 -0.000002 3.343299 -1.292231 -10.963188 0.212610 0.000004 -0.000003 7.785507 -53.733928 -16.453594 10.476873 0.000015 0.000006 2.173899 -7.088408 -5.414614 -9.837194 2.676306 -1.652407 4.938307 7.345892 4.218178 -1.622354 4.298993 0.000002 -0.000006 9.470097 3.983958 -98.711895 -0.000005 -0.000005 -10.245105 43.548675 724.450080 -4.286040 -0.000007 -0.000018 -12.703299 1355.048224 -189.766438 566.806800 -2.534602 -1.686390 5.195008 12.259954 12.847330 -12.907719 -4.144102 0.000013 -0.000003 1.418171 -4.325026 119.160655 0.000005 -0.000010 -10.116506 -57.025393 -1.161287 2.431732 0.000006 0.000007 -12.937807 -431.609981 -357.432351 -5.228814 2.175591 0.064507 -2.662894 -569.940327 0.360155 115.713663 -0.000003 -0.000007 -18.585789 41.817796 -187.421825 -56.744822 0.000005 -0.000004 -18.979523 774.471489 3.813810 -125.293318 -2.092404 -0.058096 -2.581209 878.161137 45.715849 -75.475735 0.000004 -0.000000 -18.665005 -1414.575235 1.248032 8.439885 0.000008 0.000010 -18.566605 528.413815 38.719543 -65.263509
82.408600 20.442699 20.270796 1497.029388 48.501856 -27.756530 -0.153508 1.163100 7.852400 28.766359 2.013704 2.724082 -0.000003 0.000011 3.343296 -1.289034 -10.998091 0.209350 -0.000002 0.000005 7.785500 -53.673443 -16.447804 10.565784 -0.000002 0.000000 2.173908 -7.099883 -5.379086 -9.698323 2.676292 -1.652388 4.938303 7.257375 4.232173 -1.455392 4.299006 -0.000003 -0.000003 9.623346 3.821009 -98.859557 -0.000006 -0.000010 -10.245097 43.538037 724.358828 -4.242139 0.000003 -0.000011 -12.703300 1355.018280 -189.539553 566.720958 -2.534600 -1.686396 5.195001 12.161310 12.812303 -12.766457 -4.144097 0.000007 -0.000006 1.540164 -4.362425 119.031851 -0.000007 -0.000003 -10.116501 -56.981270 -1.169285 2.414705 0.000004 -0.000000 -12.937802 -431.577633 -357.395194 -5.145226 2.175598 0.064489 -2.662897 -569.857654 0.438841 115.771201 -0.000007 -0.000009 -18.585796 41.782357 -187.288240 -56.638367 -0.000003 -0.000004 -18.979515 774.594214 3.805300 -125.330583 -2.092403 -0.058099 -2.581199 878.079011 45.837703 -75.356876 0.000007 -0.000006 -18.665007 -1415.083619 1.094123 8.377882 0.000004 0.000003 -18.566608 529.088911 38.511660 -65.449174
82.428497 20.457911 20.251091 1497.019006 48.483507 -27.708527 -0.153499 1.163108 7.852406 28.765840 2.094190 2.731879 0.000003 -0.000005 3.343302 -1.293181 -11.051548 0.205428 -0.000002 0.000002 7.785506 -53.647659 -16.459545 10.607164 0.000004 -0.000000 2.173906 -7.045087 -5.335060 -9.587541 2.676296 -1.652386 4.938301 7.246609 4.201559 -1.318563 4.298996 0.000000 -0.000002 9.711342 3.676866 -99.001454 -0.000003 -0.000002 -10.245093 43.535756 724.271347 -4.199338 -0.000000 -0.000004 -12.703304 1354.970851 -189.287505 566.562880 -2.534598 -1.686402 5.195004 11.938209 12.722435 -12.555691 -4.144103 0.000010 -0.000000 1.767616 -4.340941 118.831440 0.000014 -0.000006 -10.116497 -56.896476 -1.171195 2.398875 0.000010 0.000005 -12.937799 -431.521134 -357.395795 -5.214974 2.175591 0.064504 -2.662895 -569.844977 0.554702 115.789861 -0.000002 -0.000008 -18.585798 41.753465 -187.202330 -56.511325 0.000012 -0.000000 -18.979515 774.732348 3.799151 -125.401973 -2.092396 -0.058099 -2.581201 878.002950 45.950104 -75.310123 0.000003 -0.000009 -18.665003 -1415.683583 0.896581 8.310141 0.000004 0.000001 -18.566614 529.834494 38.291936 -65.664660
82.447601 20.474209 20.230797 1497.076161 48.482264 -27.726501 -0.153507 1.163091 7.852401 28.709635 2.149545 2.792112 -0.000010 -0.000003 3.343302 -1.285167 -11.097085 0.200788 0.000002 0.000002 7.785501 -53.633381 -16.451772 10.607182 -0.000002 0.000001 2.173903 -6.995734 -5.291827 -9.566168 2.676302 -1.652400 4.938306 7.328913 4.117833 -1.304430 4.299001 -0.000009 -0.000003 9.734857 3.591078 -99.049832 -0.000005 -0.000007 -10.245096 43.689667 724.173593 -4.150132 0.000004 -0.000021 -12.703300 1354.756329 -189.040580 566.383438 -2.534595 -1.686410 5.195002 11.774735 12.663978 -12.385184 -4.144099 -0.000004 -0.000001 1.939889 -4.366391 118.649702 0.000007 0.000001 -10.116498 -56.670394 -1.163575 2.380643 0.000012 0.000006 -12.937801 -431.607823 -357.370496 -5.300297 2.175594 0.064496 -2.662902 -569.849840 0.724068 115.789123 -0.000009 -0.000002 -18.585793 41.759756 -187.149123 -56.344802 -0.000002 -0.000005 -18.979513 774.930368 3.789538 -125.522648 -2.092395 -0.058108 -2.581198 877.948691 46.061119 -75.280153 0.000002 -0.000003 -18.665005 -1416.259505 0.670034 8.220829 0.000004 0.000007 -18.566610 530.545490 38.096070 -65.882099
